<?xml version="1.0" encoding="UTF-8"?>
<svg version="1.1" xmlns="http://www.w3.org/2000/svg" width="373" height="366">
<path d="M0 0 C123.09 0 246.18 0 373 0 C373 120.78 373 241.56 373 366 C249.91 366 126.82 366 0 366 C0 245.22 0 124.44 0 0 Z " fill="#FAFAFA" transform="translate(0,0)"/>
<path d="M0 0 C42.57 0 85.14 0 129 0 C126.41313383 1.72457744 124.32261595 2.74546412 121.45703125 3.84765625 C99.0173907 12.64007779 78.37089066 24.01285508 61 41 C60.4033252 41.57234375 59.80665039 42.1446875 59.19189453 42.734375 C23.41420331 77.10610862 2.89312099 122.65898865 1.59594727 172.43188477 C1.39718232 191.77882332 3.65348223 211.64835595 10 230 C10.43567372 231.33698635 10.87051974 232.6742426 11.3046875 234.01171875 C26.6528836 280.29496248 59.71562795 317.36680364 102.9453125 339.5703125 C121.09869291 348.65207348 138.81243683 353.60619302 158.84960938 356.61450195 C161 357 161 357 164 358 C166.67812581 358.10930751 169.32929184 358.16405904 172.0078125 358.16796875 C172.80669891 358.17129715 173.60558533 358.17462555 174.42868042 358.17805481 C176.12839179 358.18312275 177.82811312 358.18546318 179.52783203 358.18530273 C182.06691245 358.18745086 184.60553 358.20549861 187.14453125 358.22460938 C200.87991659 358.27313689 214.4719957 357.51716694 227.8125 354 C228.46541016 353.835 229.11832031 353.67 229.79101562 353.5 C233.08373418 352.64073807 235.9919735 351.57175422 239 350 C238.60603027 349.55591797 238.21206055 349.11183594 237.80615234 348.65429688 C233.14426075 342.99781133 231.32053058 337.56007816 229.625 330.5 C229.23634766 328.98019531 229.23634766 328.98019531 228.83984375 327.4296875 C228.20995285 324.95678249 227.59719799 322.48096399 227 320 C224.61167227 322.36755966 222.24265602 324.7363852 219.96484375 327.2109375 C213.25342992 334.37495149 205.32346716 339.76181594 196 343 C195.01 343 194.02 343 193 343 C193 325.18 193 307.36 193 289 C201.58 289 210.16 289 219 289 C218.01 285.7 217.02 282.4 216 279 C215.67 277.68 215.34 276.36 215 275 C207.74 274.67 200.48 274.34 193 274 C193 255.85 193 237.7 193 219 C195.31 219 197.62 219 200 219 C199.83757812 218.44570312 199.67515625 217.89140625 199.5078125 217.3203125 C198.95071525 214.77480661 198.86722739 212.47882312 198.875 209.875 C198.87242187 209.00617188 198.86984375 208.13734375 198.8671875 207.2421875 C199 205 199 205 200 203 C197.36 203 194.72 203 192 203 C192 184.85 192 166.7 192 148 C215.76 148 239.52 148 264 148 C264.72033692 151.60168459 265.12332559 154.23281071 265.11352539 157.7902832 C265.11344986 158.71086014 265.11337433 159.63143707 265.11329651 160.57991028 C265.10813522 161.5602977 265.10297394 162.54068512 265.09765625 163.55078125 C265.09553383 165.07169624 265.09553383 165.07169624 265.09336853 166.62333679 C265.08778328 169.85308821 265.07523345 173.08276962 265.0625 176.3125 C265.0574831 178.50585837 265.05292052 180.69921783 265.04882812 182.89257812 C265.03781868 188.26174253 265.0210952 193.63086626 265 199 C265.66386719 199.13277344 266.32773437 199.26554688 267.01171875 199.40234375 C269.67447917 199.93489583 272.33723958 200.46744792 275 201 C276.65 201.33 278.3 201.66 280 202 C279.67 184.18 279.34 166.36 279 148 C302.76 148 326.52 148 351 148 C353.25393701 160.39665354 353.25393701 160.39665354 353.265625 166.3984375 C353.26820313 167.70296875 353.27078125 169.0075 353.2734375 170.3515625 C353.26924805 171.01446289 353.26505859 171.67736328 353.26074219 172.36035156 C353.25005042 174.36554449 353.26068449 176.36983456 353.2734375 178.375 C353.26957031 180.33566406 353.26957031 180.33566406 353.265625 182.3359375 C353.26336914 183.49657715 353.26111328 184.6572168 353.25878906 185.85302734 C352.89972429 191.606871 351.8766152 197.30200121 351 203 C329.55 203.33 308.1 203.66 286 204 C295.24 206.31 304.48 208.62 314 211 C325.3125 214.1875 325.3125 214.1875 330.34375 215.66015625 C334.00431662 216.72832406 337.68009825 217.70098572 341.37695312 218.63452148 C355.11609858 222.11609858 355.11609858 222.11609858 360 227 C374.57288035 186.98445497 368.94392061 137.62991257 351.578125 99.55078125 C341.77720819 78.97211207 328.68385354 61.42429298 313 45 C312.39800781 44.34515625 311.79601562 43.6903125 311.17578125 43.015625 C292.55464785 23.31568539 264.9613387 8.10138399 239 1 C239 0.67 239 0.34 239 0 C283.22 0 327.44 0 373 0 C373 120.78 373 241.56 373 366 C249.91 366 126.82 366 0 366 C0 245.22 0 124.44 0 0 Z " fill="#010101" transform="translate(0,0)"/>
<path d="M0 0 C0.86496094 0.21994629 1.72992188 0.43989258 2.62109375 0.66650391 C9.56460523 2.4537317 16.44702232 4.43171808 23.32910156 6.44018555 C30.75836131 8.58407705 38.24199005 10.46576154 45.75 12.3125 C54.81686308 14.54402447 63.81931318 16.89846119 72.77563477 19.53857422 C77.77226594 20.99946395 82.78449974 22.34173473 87.8359375 23.6015625 C89.05466553 23.90707031 90.27339355 24.21257812 91.52905273 24.52734375 C93.9141131 25.12070411 96.30157649 25.70451199 98.69165039 26.27734375 C109.50859174 28.97538542 109.50859174 28.97538542 113.75 32.8125 C114.4765625 34.8125 114.4765625 34.8125 114.375 36.8125 C114.36726562 37.4725 114.35953125 38.1325 114.3515625 38.8125 C112.97364855 43.39361651 108.59950674 45.66751268 104.6171875 47.828125 C103.64652344 48.35664063 102.67585938 48.88515625 101.67578125 49.4296875 C100.66902344 49.96851563 99.66226563 50.50734375 98.625 51.0625 C97.61050781 51.61679687 96.59601563 52.17109375 95.55078125 52.7421875 C88.02170567 56.8125 88.02170567 56.8125 85.75 56.8125 C90.96435455 63.0002532 96.56785005 68.67926064 102.3671875 74.31640625 C104.20907641 76.12619718 106.05020011 77.93676717 107.890625 79.74804688 C110.76727052 82.57515454 113.64667364 85.39881635 116.54199219 88.20678711 C119.35423756 90.93518738 122.14212526 93.68778571 124.9296875 96.44140625 C125.79939178 97.27700577 126.66909607 98.11260529 127.56515503 98.973526 C130.94027277 102.33307912 133.40102471 104.97199491 135.23876953 109.39819336 C134.4883671 114.64014041 131.42950894 117.19382781 127.75 120.8125 C126.51512543 122.12261608 125.28277108 123.43511232 124.05297852 124.75 C120.58105166 128.3628434 117.07657645 131.9435571 113.56225586 135.51513672 C112.05611442 137.05314985 110.55809448 138.5991563 109.06811523 140.15283203 C106.89903713 142.41301189 104.70495539 144.64599709 102.50390625 146.875 C101.8453212 147.57173828 101.18673615 148.26847656 100.50819397 148.98632812 C97.35947952 152.1220847 95.29400827 153.65815949 90.95678711 154.88867188 C84.46728249 154.24047365 79.95594482 147.98198221 75.6875 143.53125 C74.6469433 142.47575938 73.6045964 141.4220309 72.56054688 140.36999512 C69.82667359 137.6056786 67.11768172 134.81819031 64.41326904 132.02508545 C61.6456804 129.175437 58.85510418 126.34849794 56.06640625 123.51953125 C50.60492057 117.97242775 45.16953425 112.40063009 39.75 106.8125 C35.96671949 108.0735935 35.76830476 109.11579336 33.97265625 112.58203125 C33.45896484 113.55333984 32.94527344 114.52464844 32.41601562 115.52539062 C31.62227539 117.05969727 31.62227539 117.05969727 30.8125 118.625 C29.76842352 120.63500736 28.71785345 122.64165783 27.66015625 124.64453125 C27.19746338 125.53889893 26.73477051 126.4332666 26.25805664 127.35473633 C24.65905301 129.96072137 23.08970271 131.84578118 20.75 133.8125 C17.25 134.375 17.25 134.375 13.75 133.8125 C9.35661084 129.65567795 8.24448369 124.65699907 6.75 119 C6.4929126 118.06510742 6.2358252 117.13021484 5.97094727 116.16699219 C4.28999434 110.00332264 2.71984853 103.81331569 1.2121582 97.60522461 C0.09433246 93.04538663 -1.19817598 88.5530595 -2.5625 84.0625 C-4.8817514 76.39575658 -6.83066467 68.65047742 -8.75 60.875 C-10.68485067 53.03709206 -12.62690414 45.20970084 -14.8125 37.4375 C-15.00408691 36.75204102 -15.19567383 36.06658203 -15.39306641 35.36035156 C-16.26747411 32.24795439 -17.1543733 29.13979547 -18.06103516 26.03662109 C-18.92722166 23.06928425 -19.77647135 20.09742753 -20.625 17.125 C-20.90029541 16.20348145 -21.17559082 15.28196289 -21.45922852 14.33251953 C-22.95566639 9.04371248 -23.61457268 5.17935027 -22.25 -0.1875 C-17.6787355 -6.28251934 -6.23279645 -1.6173553 0 0 Z " fill="#FDFDFD" transform="translate(237.25,206.1875)"/>
<path d="M0 0 C23.76 0 47.52 0 72 0 C72 18.15 72 36.3 72 55 C48.24 55 24.48 55 0 55 C0 36.85 0 18.7 0 0 Z " fill="#010101" transform="translate(105,148)"/>
<path d="M0 0 C1.25908676 0.00222061 2.51817352 0.00444122 3.81541443 0.00672913 C4.50806396 0.0065831 5.2007135 0.00643707 5.91435242 0.00628662 C8.21400537 0.00698577 10.51357828 0.01477823 12.81321716 0.02259827 C14.40362504 0.02446244 15.99403349 0.02588635 17.58444214 0.02688599 C21.77827021 0.03071123 25.97206386 0.04054156 30.1658783 0.05158997 C35.19354796 0.06359854 40.22122911 0.0682063 45.248909 0.07404327 C52.89406694 0.08375332 60.5391493 0.10290981 68.18431091 0.12025452 C68.18431091 18.27025452 68.18431091 36.42025452 68.18431091 55.12025452 C44.42431091 55.12025452 20.66431091 55.12025452 -3.81568909 55.12025452 C-4.46572813 49.26990315 -4.96567101 43.77020806 -4.94850159 37.93666077 C-4.94945831 37.19625046 -4.95041504 36.45584015 -4.95140076 35.69299316 C-4.95207537 34.14099542 -4.95027183 32.58899474 -4.94606018 31.03700256 C-4.94070936 28.69164034 -4.94602591 26.34647024 -4.95240784 24.00111389 C-4.96084943 7.2412172 -4.96084943 7.2412172 -3.81568909 1.12025452 C-2.81568909 0.12025452 -2.81568909 0.12025452 0 0 Z " fill="#010101" transform="translate(21.815689086914063,147.87974548339844)"/>
<path d="M0 0 C19.14 0 38.28 0 58 0 C58 18.15 58 36.3 58 55 C35.23 55 12.46 55 -11 55 C-11 47.44702479 -10.37352575 41.49592023 -8.875 34.25 C-8.59269531 32.78626953 -8.59269531 32.78626953 -8.3046875 31.29296875 C-6.14626505 20.62226775 -3.01897221 10.56640275 0 0 Z " fill="#000000" transform="translate(119,78)"/>
<path d="M0 0 C18.81 0 37.62 0 57 0 C60.37818219 7.88242511 60.37818219 7.88242511 61.28125 11.34765625 C61.48202148 12.11045898 61.68279297 12.87326172 61.88964844 13.65917969 C62.09106445 14.45227539 62.29248047 15.24537109 62.5 16.0625 C62.71430664 16.89813477 62.92861328 17.73376953 63.14941406 18.59472656 C63.77564399 21.06092014 64.39000988 23.52974542 65 26 C65.31453125 27.26199219 65.6290625 28.52398437 65.953125 29.82421875 C67.95550162 38.43247509 68.39578951 45.93684271 69 55 C46.23 55 23.46 55 0 55 C0 36.85 0 18.7 0 0 Z " fill="#000000" transform="translate(193,78)"/>
<path d="M0 0 C22.77 0 45.54 0 69 0 C69 18.15 69 36.3 69 55 C50.19 55 31.38 55 12 55 C7.60693052 41.82079156 3.57694193 29.12783456 1.25 15.5 C1.12222168 14.75838623 0.99444336 14.01677246 0.86279297 13.25268555 C0.74822754 12.54023682 0.63366211 11.82778809 0.515625 11.09375 C0.41540039 10.47177734 0.31517578 9.84980469 0.21191406 9.20898438 C-0.08129898 6.15254244 0 3.0704741 0 0 Z " fill="#010101" transform="translate(108,219)"/>
<path d="M0 0 C1.81843918 0.01697937 1.81843918 0.01697937 3.6736145 0.03430176 C7.5366373 0.07900092 11.3959162 0.17936822 15.2578125 0.28125 C17.88015465 0.32138459 20.5025551 0.35788536 23.125 0.390625 C29.54554307 0.47871606 35.96391035 0.61249516 42.3828125 0.78125 C41.32555138 6.17186427 40.24780087 11.54500177 38.9453125 16.8828125 C36.31162837 27.86052854 33.8161021 38.65660382 32.70703125 49.90234375 C32.3828125 52.78125 32.3828125 52.78125 31.3828125 55.78125 C8.2828125 55.78125 -14.8171875 55.78125 -38.6171875 55.78125 C-36.72960531 48.23092123 -35.02702149 41.54483501 -31.9921875 34.53125 C-31.64881348 33.72840576 -31.30543945 32.92556152 -30.95166016 32.09838867 C-28.55278263 26.61855745 -25.90954185 21.31532828 -22.9921875 16.09375 C-22.47084229 15.16030762 -22.47084229 15.16030762 -21.93896484 14.20800781 C-21.26168344 13.03640878 -20.56175984 11.87748293 -19.83547974 10.73561096 C-18.58905773 8.78938202 -18.58905773 8.78938202 -17.52624512 6.70585632 C-13.10363787 -0.6557665 -8.04832133 -0.28352552 0 0 Z " fill="#010101" transform="translate(60.6171875,77.21875)"/>
<path d="M0 0 C7.70395296 -0.25400875 15.40682374 -0.42885392 23.11401367 -0.54931641 C25.73421576 -0.59953978 28.3541385 -0.66773478 30.97338867 -0.75439453 C34.74467831 -0.87602596 38.51226019 -0.93247506 42.28515625 -0.9765625 C43.45208511 -1.02817535 44.61901398 -1.07978821 45.82130432 -1.13296509 C53.79549194 -1.13843748 53.79549194 -1.13843748 57.24349976 2.12043762 C59.06142096 4.67657005 60.55946877 7.21624042 62 10 C62.94647646 11.63494917 63.89417739 13.26919087 64.84375 14.90234375 C65.73973448 16.57511154 66.62494591 18.25368866 67.5 19.9375 C67.96776855 20.83339844 68.43553711 21.72929688 68.91748047 22.65234375 C74.14574207 32.90369593 78.73685705 43.68428526 81 55 C57.9 55 34.8 55 11 55 C9.35 46.09 7.7 37.18 6 28 C3.8130167 18.62795883 3.8130167 18.62795883 1.49316406 9.29394531 C0.83162061 6.21678577 0.42144743 3.1179567 0 0 Z " fill="#010101" transform="translate(267,78)"/>
<path d="M0 0 C22.77 0 45.54 0 69 0 C70.98 10.89 72.96 21.78 75 33 C76.97639647 40.87762464 76.97639647 40.87762464 79.1171875 48.7109375 C80 52 80 52 80 55 C72.29604704 55.25400875 64.59317626 55.42885392 56.88598633 55.54931641 C54.26578424 55.59953978 51.6458615 55.66773478 49.02661133 55.75439453 C45.25532169 55.87602596 41.48773981 55.93247506 37.71484375 55.9765625 C36.54791489 56.02817535 35.38098602 56.07978821 34.17869568 56.13296509 C26.20380689 56.13843796 26.20380689 56.13843796 22.75650024 52.87832642 C20.93959068 50.32268413 19.44155126 47.78209686 18 45 C17.05408453 43.37643658 16.10647 41.75386037 15.15625 40.1328125 C14.25962533 38.46953502 13.37443532 36.80004945 12.5 35.125 C11.79943481 33.78610718 11.79943481 33.78610718 11.0847168 32.42016602 C0 10.64231728 0 10.64231728 0 0 Z " fill="#010101" transform="translate(23,219)"/>
<path d="M0 0 C16.1665676 3.23331352 28.31711443 14.69960291 37.53369141 27.79394531 C49.81945556 46.27782226 49.81945556 46.27782226 52 55 C34.84 55 17.68 55 0 55 C0 36.85 0 18.7 0 0 Z " fill="#080808" transform="translate(192,8)"/>
<path d="M0 0 C16.83 0 33.66 0 51 0 C51 17.82 51 35.64 51 54 C35.67209501 51.44534917 24.92317916 41.20076167 16 29 C9.40701423 19.74580482 4.88823342 10.4747859 0 0 Z " fill="#010101" transform="translate(126,289)"/>
<path d="M0 0 C0 17.49 0 34.98 0 53 C-16.5 53 -33 53 -50 53 C-48.9890368 47.94518402 -47.44545193 44.47701553 -45.0625 40 C-44.66426025 39.25177979 -44.26602051 38.50355957 -43.85571289 37.73266602 C-35.35128266 22.19556699 -19.39169409 0 0 0 Z " fill="#010101" transform="translate(177,9)"/>
<path d="M0 0 C-0.81791016 0.83917969 -0.81791016 0.83917969 -1.65234375 1.6953125 C-12.34571088 13.06501226 -19.28076362 26.04355612 -26 40 C-27.32 42.64 -28.64 45.28 -30 48 C-45.84 48 -61.68 48 -78 48 C-67.18367836 26.36735672 -33.19854002 9.96815944 -11.625 1.875 C-10.80999023 1.56731689 -9.99498047 1.25963379 -9.15527344 0.94262695 C-8.39504883 0.67023193 -7.63482422 0.39783691 -6.8515625 0.1171875 C-6.17947754 -0.12402832 -5.50739258 -0.36524414 -4.81494141 -0.61376953 C-3 -1 -3 -1 0 0 Z " fill="#070707" transform="translate(139,15)"/>
<path d="M0 0 C16.17 0 32.34 0 49 0 C51.31 5.28 53.62 10.56 56 16 C60.4568183 24.33856327 65.12159672 31.85355551 70.921875 39.28125 C73.08890583 42.11631289 75.04982718 45.01324883 77 48 C48.13054568 42.93518345 18.15748656 22.6968582 0 0 Z " fill="#030303" transform="translate(61,289)"/>
<path d="M0 0 C19.61564105 5.26160725 39.14678864 14.21756817 55 27 C55.93199219 27.7425 56.86398437 28.485 57.82421875 29.25 C60.57473041 31.47142278 63.29238581 33.72658718 66 36 C66.77988281 36.64324219 67.55976563 37.28648438 68.36328125 37.94921875 C69.06839844 38.54347656 69.77351563 39.13773438 70.5 39.75 C71.1084375 40.26046875 71.716875 40.7709375 72.34375 41.296875 C74 43 74 43 77 48 C61.16 48 45.32 48 29 48 C25.7 41.07 22.4 34.14 19 27 C14.22834478 18.8798148 8.7224722 11.463612 3 4 C1.99822784 2.66799763 0.99747296 1.33522488 0 0 Z " fill="#020202" transform="translate(231,14)"/>
</svg>
